<?xml version="1.0" encoding="utf-8"?>
<!-- Generator: Adobe Illustrator 19.1.0, SVG Export Plug-In . SVG Version: 6.00 Build 0)  -->
<svg version="1.1" id="Layer_1" xmlns="http://www.w3.org/2000/svg" xmlns:xlink="http://www.w3.org/1999/xlink" x="0px" y="0px"
	 viewBox="1.6 7.9 59.8 59.8" style="enable-background:new 1.6 7.9 59.8 59.8;" xml:space="preserve">
<style type="text/css">
	.st0{fill:#FFFFFF;}
</style>
<g>
	<path class="st0" d="M61.4,7.9H1.6v59.8h59.8V7.9z M24.3,50.8h-5.4V33.4h5.4V50.8z M21.6,31.1c-1.7,0-3.1-1.4-3.1-3.1
		s1.4-3.1,3.1-3.1s3.1,1.4,3.1,3.1S23.3,31.1,21.6,31.1z M44.5,41.4v9.4h-5.4v-8.9c0-1,0.2-4.1-3-4.1s-3,4-3,4v8.9h-5.4V33.4h5.2
		v2.5c1.4-2.3,4-3.6,8-2.5S44.5,41.4,44.5,41.4z"/>
</g>
</svg>
