<?xml version="1.0" encoding="utf-8"?>
<!-- Generator: Adobe Illustrator 19.1.0, SVG Export Plug-In . SVG Version: 6.00 Build 0)  -->
<svg version="1.1" id="Layer_1" xmlns="http://www.w3.org/2000/svg" xmlns:xlink="http://www.w3.org/1999/xlink" x="0px" y="0px"
	 viewBox="0 0 200 200" style="enable-background:new 0 0 200 200;" xml:space="preserve">
<style type="text/css">
	.st0{fill:#FFFFFF;}
</style>
<g>
	<path class="st0" d="M140.1,50.3H65.8v74.2h74.2V50.3z M83.5,71.1h38.8c2.1,0,2.1,1.1,2.1,1.1l-19.2,14.9c-0.6,0.6-1.2,0.7-2.4,0.7
		s-2.2-1-2.2-1L81.7,71.9C82.3,71.3,83.5,71.1,83.5,71.1z M81,74.6l16,13.8l-16,11.9V74.6z M82,101.3l16-12.1c0,0,2.7,2.9,5,2.9
		c2.4,0,4.8-2.9,4.8-2.9l15.6,12.1H82z M124.8,100.4l-16.1-11.7l16.1-13.6V100.4z"/>
</g>
</svg>
