<?xml version="1.0" encoding="utf-8"?>
<!-- Generator: Adobe Illustrator 19.1.0, SVG Export Plug-In . SVG Version: 6.00 Build 0)  -->
<svg version="1.1" id="Layer_1" xmlns="http://www.w3.org/2000/svg" xmlns:xlink="http://www.w3.org/1999/xlink" x="0px" y="0px"
	 viewBox="0 0 64.2 64.2" style="enable-background:new 0 0 64.2 64.2;" xml:space="preserve">
<style type="text/css">
	.st0{fill:#FFFFFF;}
</style>
<path class="st0" d="M64.2,0H0v64.2h64.2V0z M47.2,24.3c0,0,1,9.6-7.2,17.6c-8.3,7.9-21.9,6.3-26.8,2.1c0,0,6.7,0.7,11.4-3.3
	c0,0-5.5-0.1-7.1-5.3c0,0,2.8,0.2,3.3-0.3c0,0-6-1.4-6-7.7c0,0,1.8,0.9,3.5,1c0,0-5.8-4.2-2.3-10.4c0,0,5.8,7.7,15.9,8.2
	c0,0-1.4-4.6,2.8-8c4.2-3.5,9.4-0.5,10.4,0.8c0,0,3-0.5,5-1.8c0,0-0.7,2.7-3.2,4.3c0,0,2.9-0.4,4.3-1.2C51,20.3,49.6,22.6,47.2,24.3
	z"/>
</svg>
